<svg width="100%" viewBox="0 0 680 400" role="img" xmlns="http://www.w3.org/2000/svg">
<title>RandomForest Disruption Classifier</title>
<desc>Weather, social, and platform signals enter 150 parallel decision trees. Majority vote produces a disruption class and severity label used to trigger parametric payouts.</desc>
<defs>
  <marker id="a" viewBox="0 0 10 10" refX="8" refY="5" markerWidth="6" markerHeight="6" orient="auto-start-reverse">
    <path d="M2 1L8 5L2 9" fill="none" stroke="context-stroke" stroke-width="1.5" stroke-linecap="round" stroke-linejoin="round"/>
  </marker>
  <style>
    text { font-family: system-ui, -apple-system, sans-serif; fill: #1a1a1a; }
    .th { font-size: 12px; font-weight: 600; }
    .ts { font-size: 10px; font-weight: 400; fill: #555; }
    .label { font-size: 11px; fill: #888; }
  </style>
</defs>

<rect x="8" y="10" width="140" height="375" rx="10" fill="#EBF3FB" stroke="#185FA5" stroke-width="0.5" stroke-dasharray="3 3"/>
<text x="78" y="26" text-anchor="middle" class="label" style="fill:#185FA5">event signals</text>

<rect x="170" y="10" width="304" height="375" rx="10" fill="#E1F5EE" stroke="#0F6E56" stroke-width="0.5" stroke-dasharray="3 3"/>
<text x="322" y="26" text-anchor="middle" class="label" style="fill:#0F6E56">150 parallel decision trees</text>

<rect x="496" y="10" width="176" height="375" rx="10" fill="#FAEEDA" stroke="#854F0B" stroke-width="0.5" stroke-dasharray="3 3"/>
<text x="584" y="26" text-anchor="middle" class="label" style="fill:#854F0B">majority vote output</text>

<rect x="14" y="44" width="128" height="36" rx="6" fill="#E6F1FB" stroke="#185FA5" stroke-width="0.5"/>
<text class="th" x="78" y="59" text-anchor="middle" dominant-baseline="central">rainfall_mm_hr</text>
<text class="ts" x="78" y="72" text-anchor="middle" dominant-baseline="central">weather API feed</text>

<rect x="14" y="92" width="128" height="36" rx="6" fill="#E6F1FB" stroke="#185FA5" stroke-width="0.5"/>
<text class="th" x="78" y="107" text-anchor="middle" dominant-baseline="central">aqi_pm25_level</text>
<text class="ts" x="78" y="120" text-anchor="middle" dominant-baseline="central">pollution index</text>

<rect x="14" y="140" width="128" height="36" rx="6" fill="#E1F5EE" stroke="#0F6E56" stroke-width="0.5"/>
<text class="th" x="78" y="155" text-anchor="middle" dominant-baseline="central" style="fill:#085041">curfew_flag</text>
<text class="ts" x="78" y="168" text-anchor="middle" dominant-baseline="central">admin event signal</text>

<rect x="14" y="188" width="128" height="36" rx="6" fill="#E1F5EE" stroke="#0F6E56" stroke-width="0.5"/>
<text class="th" x="78" y="203" text-anchor="middle" dominant-baseline="central" style="fill:#085041">strike_zone_active</text>
<text class="ts" x="78" y="216" text-anchor="middle" dominant-baseline="central">social disruption</text>

<rect x="14" y="236" width="128" height="36" rx="6" fill="#EEEDFE" stroke="#534AB7" stroke-width="0.5"/>
<text class="th" x="78" y="251" text-anchor="middle" dominant-baseline="central" style="fill:#26215C">platform_order_drop</text>
<text class="ts" x="78" y="264" text-anchor="middle" dominant-baseline="central">app crash proxy</text>

<rect x="14" y="284" width="128" height="36" rx="6" fill="#EEEDFE" stroke="#534AB7" stroke-width="0.5"/>
<text class="th" x="78" y="299" text-anchor="middle" dominant-baseline="central" style="fill:#26215C">heat_index_c</text>
<text class="ts" x="78" y="312" text-anchor="middle" dominant-baseline="central">outdoor work viability</text>

<path d="M142 62  Q156 62  176 130" fill="none" stroke="#378ADD" stroke-width="1" stroke-dasharray="4 3" marker-end="url(#a)" opacity=".65"/>
<path d="M142 110 Q156 110 176 155" fill="none" stroke="#378ADD" stroke-width="1" stroke-dasharray="4 3" marker-end="url(#a)" opacity=".65"/>
<path d="M142 158 Q156 158 176 180" fill="none" stroke="#1D9E75" stroke-width="1" stroke-dasharray="4 3" marker-end="url(#a)" opacity=".65"/>
<path d="M142 206 Q156 206 176 205" fill="none" stroke="#1D9E75" stroke-width="1" stroke-dasharray="4 3" marker-end="url(#a)" opacity=".65"/>
<path d="M142 254 Q156 254 176 230" fill="none" stroke="#7F77DD" stroke-width="1" stroke-dasharray="4 3" marker-end="url(#a)" opacity=".65"/>
<path d="M142 302 Q156 302 176 255" fill="none" stroke="#7F77DD" stroke-width="1" stroke-dasharray="4 3" marker-end="url(#a)" opacity=".65"/>

<rect x="176" y="48" width="90" height="70" rx="6" fill="#E1F5EE" stroke="#0F6E56" stroke-width="0.5"/>
<text class="th" x="221" y="75" text-anchor="middle" dominant-baseline="central" style="fill:#085041">tree 1</text>
<text class="ts" x="221" y="93" text-anchor="middle" dominant-baseline="central">depth=12</text>
<text class="ts" x="221" y="108" text-anchor="middle" dominant-baseline="central">vote: HEAVY_RAIN</text>

<rect x="280" y="48" width="90" height="70" rx="6" fill="#E1F5EE" stroke="#0F6E56" stroke-width="0.5"/>
<text class="th" x="325" y="75" text-anchor="middle" dominant-baseline="central" style="fill:#085041">tree 2</text>
<text class="ts" x="325" y="93" text-anchor="middle" dominant-baseline="central">depth=12</text>
<text class="ts" x="325" y="108" text-anchor="middle" dominant-baseline="central">vote: HEAVY_RAIN</text>

<rect x="384" y="48" width="80" height="70" rx="6" fill="#F1EFE8" stroke="#5F5E5A" stroke-width="0.5"/>
<text class="th" x="424" y="75" text-anchor="middle" dominant-baseline="central" style="fill:#2C2C2A">tree 3</text>
<text class="ts" x="424" y="93" text-anchor="middle" dominant-baseline="central">depth=12</text>
<text class="ts" x="424" y="108" text-anchor="middle" dominant-baseline="central">vote: POLLUTION</text>

<text x="322" y="148" text-anchor="middle" class="label">· · ·  147 more trees  · · ·</text>

<rect x="176" y="170" width="90" height="70" rx="6" fill="#E1F5EE" stroke="#0F6E56" stroke-width="0.5"/>
<text class="th" x="221" y="197" text-anchor="middle" dominant-baseline="central" style="fill:#085041">tree 149</text>
<text class="ts" x="221" y="215" text-anchor="middle" dominant-baseline="central">depth=12</text>
<text class="ts" x="221" y="230" text-anchor="middle" dominant-baseline="central">vote: HEAVY_RAIN</text>

<rect x="280" y="170" width="90" height="70" rx="6" fill="#E1F5EE" stroke="#0F6E56" stroke-width="0.5"/>
<text class="th" x="325" y="197" text-anchor="middle" dominant-baseline="central" style="fill:#085041">tree 150</text>
<text class="ts" x="325" y="215" text-anchor="middle" dominant-baseline="central">depth=12</text>
<text class="ts" x="325" y="230" text-anchor="middle" dominant-baseline="central">vote: HEAVY_RAIN</text>

<line x1="266" y1="84" x2="488" y2="200" stroke="#1D9E75" stroke-width="0.7" opacity=".3"/>
<line x1="370" y1="84" x2="488" y2="210" stroke="#1D9E75" stroke-width="0.7" opacity=".3"/>
<line x1="464" y1="84" x2="488" y2="220" stroke="#888780" stroke-width="0.7" opacity=".25"/>
<line x1="266" y1="206" x2="488" y2="230" stroke="#1D9E75" stroke-width="0.7" opacity=".3"/>
<line x1="370" y1="206" x2="488" y2="240" stroke="#1D9E75" stroke-width="0.7" opacity=".3"/>

<rect x="488" y="120" width="180" height="56" rx="8" fill="#FCEBEB" stroke="#A32D2D" stroke-width="0.5"/>
<text class="th" x="578" y="141" text-anchor="middle" dominant-baseline="central" style="font-size:13px;fill:#501313">HEAVY_RAIN</text>
<text class="ts" x="578" y="161" text-anchor="middle" dominant-baseline="central">112 / 150 trees · severity: HIGH</text>

<rect x="488" y="196" width="180" height="44" rx="8" fill="#FAEEDA" stroke="#854F0B" stroke-width="0.5"/>
<text class="th" x="578" y="213" text-anchor="middle" dominant-baseline="central" style="fill:#633806">trigger: payout active</text>
<text class="ts" x="578" y="230" text-anchor="middle" dominant-baseline="central">confidence: 74.7%</text>

<rect x="488" y="260" width="180" height="44" rx="8" fill="#EAF3DE" stroke="#3B6D11" stroke-width="0.5"/>
<text class="th" x="578" y="277" text-anchor="middle" dominant-baseline="central" style="fill:#173404">payout: ₹400/day</text>
<text class="ts" x="578" y="294" text-anchor="middle" dominant-baseline="central">initiated automatically</text>

<text x="78" y="372" text-anchor="middle" class="label">6 real-time signals</text>
<text x="322" y="372" text-anchor="middle" class="label">150 trees · majority vote</text>
<text x="584" y="372" text-anchor="middle" class="label">class + payout</text>
</svg>
